<svg width="26" height="45" viewBox="0 0 26 45" fill="none" xmlns="http://www.w3.org/2000/svg">
<path d="M24.8634 0.871383C24.5879 0.595167 24.2606 0.37602 23.9003 0.226493C23.5399 0.0769671 23.1536 0 22.7635 0C22.3734 0 21.9871 0.0769671 21.6267 0.226493C21.2664 0.37602 20.9391 0.595167 20.6635 0.871383L0.708078 20.8268C0.488109 21.0464 0.313593 21.3071 0.194521 21.5942C0.0754496 21.8812 0.0141602 22.1889 0.0141602 22.4997C0.0141602 22.8104 0.0754496 23.1182 0.194521 23.4052C0.313593 23.6923 0.488109 23.953 0.708078 24.1725L20.6635 44.128C21.8262 45.2907 23.7008 45.2907 24.8634 44.128C26.0261 42.9653 26.0261 41.0908 24.8634 39.9281L7.4469 22.5115L24.8872 5.07128C26.0261 3.9086 26.0261 2.03407 24.8634 0.871383Z" fill="white"/>
</svg>
