<svg width="45" height="45" viewBox="0 0 45 45" fill="none" xmlns="http://www.w3.org/2000/svg">
<path d="M6.35464 38.6442C4.36882 36.658 2.81369 34.3628 1.68928 31.7587C0.563092 29.1546 0 26.4622 0 23.6815C0 20.9009 0.529553 18.1529 1.58866 15.4375C2.64777 12.7239 4.36882 10.1754 6.75181 7.79199C8.29634 6.24717 10.2054 4.92304 12.4789 3.8196C14.7507 2.71616 17.4417 1.844 20.552 1.20312C23.664 0.56401 27.2173 0.178248 31.2119 0.0458353C35.2047 -0.0865775 39.6724 0.0679034 44.6149 0.50928C44.9679 5.18787 45.0782 9.49128 44.9458 13.4195C44.8135 17.3478 44.4489 20.8894 43.8523 24.0443C43.2575 27.2011 42.4199 29.9597 41.3396 32.3201C40.2575 34.6824 38.9222 36.658 37.3335 38.2469C34.9947 40.5862 32.5128 42.2961 29.888 43.3766C27.2614 44.4589 24.5801 45 21.8441 45C18.9757 45 16.1734 44.4377 13.4374 43.3131C10.7014 42.1867 8.34047 40.6304 6.35464 38.6442ZM13.7684 37.5849C15.0481 38.3352 16.3614 38.8755 17.7083 39.2056C19.0533 39.5375 20.4319 39.7035 21.8441 39.7035C23.874 39.7035 25.8819 39.2957 27.8677 38.48C29.8536 37.6626 31.7511 36.349 33.5604 34.5394C34.3548 33.7449 35.1597 32.6309 35.9752 31.1973C36.7925 29.7619 37.4994 27.8852 38.0961 25.5671C38.6909 23.2507 39.1428 20.4489 39.4517 17.1615C39.7606 13.8724 39.8048 9.95473 39.5841 5.40856C37.4218 5.32028 34.9841 5.28674 32.271 5.30792C29.5561 5.33087 26.8528 5.54097 24.1609 5.93821C21.469 6.33545 18.9095 6.97544 16.4823 7.85819C14.0552 8.74095 12.0694 9.95473 10.5249 11.4995C8.53905 13.4857 7.17104 15.4499 6.42084 17.3919C5.67063 19.334 5.29553 21.2098 5.29553 23.0195C5.29553 25.6236 5.79155 27.9073 6.78358 29.8705C7.77737 31.8355 8.64937 33.2153 9.39957 34.0097C11.253 30.4787 13.7022 27.0907 16.7471 23.8457C19.7921 20.6025 23.3445 17.9436 27.4044 15.8692C24.2271 18.6498 21.4584 21.7942 19.0983 25.3023C16.7365 28.8121 14.9599 32.9063 13.7684 37.5849Z" fill="url(#paint0_linear_156_14181)"/>
<defs>
<linearGradient id="paint0_linear_156_14181" x1="41.631" y1="8.56738e-06" x2="-5.08023" y2="6.10044" gradientUnits="userSpaceOnUse">
<stop stop-color="#4F8E00"/>
<stop offset="1" stop-color="#88AF01"/>
</linearGradient>
</defs>
</svg>
