<svg width="38" height="50" viewBox="0 0 38 50" fill="none" xmlns="http://www.w3.org/2000/svg">
<path d="M1.51956 43.3192L1.51955 43.3193C1.45972 43.9767 1.53758 44.6393 1.74814 45.265C1.95871 45.8906 2.29736 46.4655 2.7425 46.953C3.18764 47.4404 3.72949 47.8298 4.33349 48.0961C4.93748 48.3625 5.59036 48.5 6.25049 48.5H6.25057H25.0012C25.0012 48.5 25.0013 48.5 25.0013 48.5C25.6613 48.4999 26.3141 48.3623 26.9179 48.0959C27.5218 47.8295 28.0636 47.4401 28.5087 46.9527C28.9537 46.4652 29.2923 45.8904 29.5028 45.2648C29.7133 44.6392 29.7912 43.9766 29.7313 43.3193L29.7313 43.3192L27.7421 21.4439C27.6343 20.2638 27.0894 19.1666 26.2142 18.3676C25.3391 17.5687 24.1969 17.1257 23.012 17.1256L1.51956 43.3192ZM1.51956 43.3192L3.50884 21.4439C3.50886 21.4437 3.50887 21.4435 3.50889 21.4433C3.61677 20.2634 4.16168 19.1665 5.03671 18.3676C5.91184 17.5687 7.05397 17.1257 8.23893 17.1256C8.23897 17.1256 8.23901 17.1256 8.23904 17.1256H23.0119L1.51956 43.3192ZM24.9387 32.553V32.5542C24.9382 33.297 24.6428 34.0093 24.1175 34.5346C23.5922 35.0599 22.88 35.3553 22.1371 35.3558H22.136H19.7296V37.7622C19.7296 38.5053 19.4344 39.218 18.9089 39.7434C18.3835 40.2688 17.6708 40.564 16.9277 40.564H14.3232C13.5801 40.564 12.8674 40.2688 12.342 39.7434L13.4026 38.6827L12.342 39.7434C11.8165 39.218 11.5213 38.5053 11.5213 37.7622V35.3558H9.11494H9.11382C8.37085 35.3553 7.65848 35.0597 7.1333 34.5342C6.60814 34.0086 6.31313 33.296 6.31313 32.553L6.31313 29.9505C6.31313 29.9503 6.31313 29.95 6.31313 29.9498C6.31313 29.9496 6.31313 29.9495 6.31313 29.9494C6.313 29.5817 6.38527 29.2175 6.5258 28.8777L7.89187 29.4426L6.52581 28.8777C6.66648 28.5375 6.87281 28.2284 7.13301 27.968C7.13302 27.968 7.13302 27.968 7.13303 27.968L8.19408 29.0283C8.31498 28.9073 8.45853 28.8113 8.61654 28.7458C8.77454 28.6803 8.9439 28.6466 9.11494 28.6466L24.9387 32.553ZM24.9387 32.553V29.9494C24.9387 29.2061 24.6434 28.4932 24.1178 27.9675C23.5922 27.4419 22.8793 27.1466 22.136 27.1466H19.7296M24.9387 32.553L19.7296 27.1466M19.7296 27.1466V24.7402C19.7296 24.3723 19.6571 24.008 19.5163 23.668C19.3755 23.3281 19.1691 23.0192 18.9089 22.759C18.6488 22.4989 18.3399 22.2925 18 22.1517C17.66 22.0109 17.2957 21.9384 16.9277 21.9384H14.3232C13.9552 21.9384 13.5909 22.0109 13.2509 22.1517C12.911 22.2925 12.6021 22.4989 12.342 22.759C12.0818 23.0192 11.8754 23.3281 11.7346 23.668L13.1204 24.242L11.7346 23.668C11.5938 24.008 11.5213 24.3723 11.5213 24.7402V27.1466H19.7296ZM35.9831 10.2466L35.9832 10.2467C35.989 10.2525 35.9937 10.2594 35.9968 10.267C35.9999 10.2746 36.0016 10.2827 36.0016 10.2909C36.0016 10.2991 35.9999 10.3073 35.9968 10.3149C35.9937 10.3225 35.989 10.3294 35.9832 10.3352L35.9831 10.3353L33.774 12.5444L33.7739 12.5445C33.7681 12.5503 33.7612 12.5549 33.7536 12.5581C33.746 12.5612 33.7379 12.5628 33.7297 12.5628C33.7215 12.5628 33.7133 12.5612 33.7057 12.5581C33.6981 12.5549 33.6912 12.5503 33.6854 12.5445L33.6853 12.5444L29.4557 8.31471L29.0163 7.87537H28.395H21.8762H20.3762V9.37537V11.0005H10.8757V3.12512C10.8757 2.69411 11.0469 2.28076 11.3517 1.97599C11.6565 1.67122 12.0698 1.5 12.5008 1.5H18.7511C19.1821 1.5 19.5954 1.67122 19.9002 1.97599L20.9609 0.915327L19.9002 1.97599C20.205 2.28076 20.3762 2.69411 20.3762 3.12512V4.62512H21.8762H28.3948C28.3948 4.62512 28.3949 4.62512 28.395 4.62512C29.6543 4.62537 30.862 5.12567 31.7526 6.01605L35.9831 10.2466Z" stroke="url(#paint0_linear_265_13766)" stroke-width="3"/>
<defs>
<linearGradient id="paint0_linear_265_13766" x1="34.694" y1="9.51931e-06" x2="-4.52139" y2="3.84127" gradientUnits="userSpaceOnUse">
<stop stop-color="#4F8E00"/>
<stop offset="1" stop-color="#88AF01"/>
</linearGradient>
</defs>
</svg>
