<svg width="48" height="50" viewBox="0 0 48 50" fill="none" xmlns="http://www.w3.org/2000/svg">
<path d="M46.3945 26.3196C47.4017 24.9727 47.9592 23.3224 47.9592 21.6054C47.9592 18.8812 46.4545 16.3027 44.0325 14.8647C43.409 14.4946 42.6991 14.2998 41.9763 14.3005H27.6005L27.9602 6.84387C28.0441 5.0419 27.4147 3.33095 26.1917 2.0265C25.5915 1.38354 24.8675 0.871983 24.0642 0.523435C23.261 0.174887 22.3956 -0.00324604 21.5217 4.47771e-05C18.4043 4.47771e-05 15.6467 2.12357 14.8194 5.16325L9.66977 24.0323H1.91837C0.85727 24.0323 0 24.8999 0 25.9738V48.0585C0 49.1324 0.85727 50 1.91837 50H37.9657C38.5172 50 39.0568 49.8908 39.5543 49.6724C42.4079 48.4407 44.2483 45.6195 44.2483 42.4888C44.2483 41.7243 44.1404 40.972 43.9246 40.2439C44.9318 38.897 45.4893 37.2467 45.4893 35.5297C45.4893 34.7652 45.3814 34.0129 45.1656 33.2848C46.1727 31.9379 46.7302 30.2876 46.7302 28.5706C46.7182 27.8061 46.6103 27.0477 46.3945 26.3196ZM4.31633 45.6316V28.4007H9.17219V45.6316H4.31633ZM42.4679 24.2143L41.155 25.3671L41.9883 26.9082C42.2628 27.4158 42.4051 27.9858 42.4019 28.5645C42.4019 29.5656 41.9703 30.5182 41.2269 31.1734L39.914 32.3262L40.7473 33.8673C41.0219 34.3749 41.1642 34.9449 41.161 35.5236C41.161 36.5247 40.7293 37.4773 39.986 38.1325L38.6731 39.2853L39.5064 40.8264C39.7809 41.334 39.9233 41.904 39.92 42.4827C39.92 43.8418 39.1287 45.0674 37.9057 45.6255H13.0089V28.2065L18.9739 6.33422C19.1277 5.77361 19.4578 5.27902 19.9144 4.92539C20.3709 4.57176 20.9288 4.37837 21.5037 4.37451C21.9593 4.37451 22.4089 4.50799 22.7686 4.78101C23.3621 5.22999 23.6798 5.90952 23.6439 6.63152L23.0684 18.6689H41.9163C42.9834 19.3302 43.6429 20.4466 43.6429 21.6054C43.6429 22.6065 43.2112 23.553 42.4679 24.2143Z" fill="url(#paint0_linear_265_13755)"/>
<defs>
<linearGradient id="paint0_linear_265_13755" x1="44.3687" y1="9.51931e-06" x2="-5.48116" y2="6.2446" gradientUnits="userSpaceOnUse">
<stop stop-color="#4F8E00"/>
<stop offset="1" stop-color="#88AF01"/>
</linearGradient>
</defs>
</svg>
