<svg width="50" height="50" viewBox="0 0 50 50" fill="none" xmlns="http://www.w3.org/2000/svg">
<path d="M22.8778 0.319078C23.8707 -0.0524045 24.9555 -0.100834 25.9775 0.180698L26.4102 0.319078L44.0223 6.92358C44.9153 7.25844 45.6947 7.84018 46.2698 8.60101C46.8449 9.36184 47.1919 10.2704 47.2704 11.2209L47.288 11.6361V25.1294C47.2879 29.2064 46.1871 33.2077 44.1018 36.711C42.0164 40.2143 39.0239 43.0896 35.4402 45.0335L34.7709 45.3832L26.3323 49.6025C25.8676 49.8345 25.3601 49.9681 24.8414 49.995C24.3228 50.0218 23.8042 49.9413 23.3181 49.7585L22.9558 49.6025L14.5171 45.3832C10.8704 43.5598 7.78372 40.7857 5.5828 37.3537C3.38187 33.9216 2.1484 29.959 2.01258 25.8842L2 25.1294V11.6361C2.00001 10.6828 2.27079 9.74919 2.7808 8.94386C3.29081 8.13853 4.01908 7.49463 4.88082 7.08712L5.26577 6.92358L22.8778 0.319078ZM24.644 5.03155L7.032 11.6361V25.1294C7.03207 28.287 7.88104 31.3865 9.49003 34.1034C11.099 36.8203 13.4088 39.0547 16.1777 40.5726L16.7689 40.8821L24.644 44.8196L32.5191 40.8821C35.3439 39.4699 37.737 37.3242 39.4478 34.6697C41.1587 32.0152 42.1242 28.9494 42.2435 25.7936L42.256 25.1294V11.6361L24.644 5.03155ZM33.2814 16.507C33.7342 16.0558 34.3418 15.7938 34.9807 15.7743C35.6197 15.7548 36.2421 15.9792 36.7215 16.402C37.201 16.8248 37.5016 17.4142 37.5622 18.0505C37.6228 18.6869 37.4389 19.3225 37.0479 19.8282L36.8391 20.0647L23.6703 33.2359C23.1906 33.7155 22.5515 34.0023 21.8743 34.0417C21.1971 34.0811 20.5291 33.8705 19.997 33.4498L19.7554 33.2359L13.707 27.1875C13.2509 26.7357 12.9848 26.1268 12.963 25.4853C12.9413 24.8437 13.1655 24.2182 13.5899 23.7366C14.0142 23.255 14.6066 22.9538 15.2458 22.8946C15.885 22.8355 16.5226 23.0229 17.0281 23.4185L17.2646 23.6273L21.7129 28.0756L33.2814 16.507Z" fill="url(#paint0_linear_265_13764)"/>
<defs>
<linearGradient id="paint0_linear_265_13764" x1="43.8975" y1="9.51931e-06" x2="-3.25477" y2="5.57771" gradientUnits="userSpaceOnUse">
<stop stop-color="#4F8E00"/>
<stop offset="1" stop-color="#88AF01"/>
</linearGradient>
</defs>
</svg>
