<svg width="26" height="33" viewBox="0 0 26 33" fill="none" xmlns="http://www.w3.org/2000/svg">
<path d="M3.25 32.75H22.75C23.612 32.75 24.4386 32.4076 25.0481 31.7981C25.6576 31.1886 26 30.362 26 29.5V3.5C26 2.63805 25.6576 1.8114 25.0481 1.2019C24.4386 0.59241 23.612 0.25 22.75 0.25H3.25C2.38805 0.25 1.5614 0.59241 0.951903 1.2019C0.34241 1.8114 0 2.63805 0 3.5V29.5C0 30.362 0.34241 31.1886 0.951903 31.7981C1.5614 32.4076 2.38805 32.75 3.25 32.75ZM8.125 27.875H4.875V24.625H8.125V27.875ZM8.125 21.375H4.875V18.125H8.125V21.375ZM8.125 14.875H4.875V11.625H8.125V14.875ZM14.625 27.875H11.375V24.625H14.625V27.875ZM14.625 21.375H11.375V18.125H14.625V21.375ZM14.625 14.875H11.375V11.625H14.625V14.875ZM21.125 27.875H17.875V18.125H21.125V27.875ZM21.125 14.875H17.875V11.625H21.125V14.875ZM3.25 3.5H22.75V8.375H3.25V3.5Z" fill="#4F8E00"/>
</svg>
