<svg width="35" height="31" viewBox="0 0 35 31" fill="none" xmlns="http://www.w3.org/2000/svg">
<path d="M0.839245 0.5L0.5 1.85752L1.17864 2.02699L5.89138 3.20549L8.17701 6.63369L13.0309 21.1954L10.1667 26.9241H11.5525C11.3855 27.2626 11.2987 27.635 11.2988 28.0124C11.2988 29.378 12.4208 30.5 13.7864 30.5C15.152 30.5 16.2739 29.378 16.2739 28.0124C16.2739 27.6229 16.1824 27.2535 16.0202 26.9241H23.9904C23.8234 27.2626 23.7366 27.635 23.7367 28.0124C23.7367 29.378 24.8587 30.5 26.2243 30.5C27.5899 30.5 28.7119 29.378 28.7119 28.0124C28.7119 27.6229 28.6203 27.2535 28.4582 26.9241H29.4115V25.5248H12.4308L14.2187 21.9489H29.2161L34.6577 5.62412H9.18557L6.75582 1.9791L1.51812 0.669778L0.839245 0.5ZM9.78197 7.02323H16.8181V10.5991H10.974L9.78197 7.02323ZM18.2174 7.02323H24.2809V10.5991H18.2174V7.02323ZM25.6801 7.02323H32.7163L31.5243 10.5991H25.6801V7.02323ZM11.4403 11.9984H16.8181V15.5743H12.6323L11.4403 11.9984ZM18.2174 11.9984H24.2809V15.5743H18.2174V11.9984ZM25.6801 11.9984H31.058L29.866 15.5743H25.6801V11.9984ZM13.0987 16.9736H16.8181V20.5495H14.2906L13.0987 16.9736ZM18.2174 16.9736H24.2809V20.5495H18.2174V16.9736ZM25.6801 16.9736H29.3995L28.2077 20.5495H25.6801V16.9736ZM13.7864 26.9239C14.3958 26.9239 14.8747 27.4028 14.8747 28.0123C14.8747 28.6217 14.3958 29.1006 13.7864 29.1006C13.1769 29.1006 12.698 28.6217 12.698 28.0123C12.698 27.4028 13.1769 26.9239 13.7864 26.9239ZM26.2243 26.9239C26.8338 26.9239 27.3126 27.4028 27.3126 28.0123C27.3126 28.6217 26.8338 29.1006 26.2243 29.1006C25.6148 29.1006 25.136 28.6217 25.136 28.0123C25.136 27.4028 25.6148 26.9239 26.2243 26.9239Z" fill="#616161"/>
</svg>
