<svg width="20" height="17" viewBox="0 0 20 17" fill="none" xmlns="http://www.w3.org/2000/svg">
<path d="M0.0680001 1.982L8.943 10.858C9.20555 11.1207 9.55624 11.2767 9.92719 11.2957C10.2981 11.3148 10.6629 11.1955 10.951 10.961L11.065 10.858L19.934 1.988C19.963 2.098 19.982 2.21 19.992 2.325L20 2.5V14.5C20.0002 15.0046 19.8096 15.4906 19.4665 15.8605C19.1234 16.2305 18.6532 16.4572 18.15 16.495L18 16.5H2C1.49542 16.5002 1.00943 16.3096 0.639452 15.9665C0.269471 15.6234 0.0428433 15.1532 0.00500011 14.65L0 14.5V2.5C0 2.38 0.00999997 2.264 0.03 2.15L0.0680001 1.982ZM18 0.5C18.121 0.5 18.24 0.51 18.355 0.531L18.525 0.57L10.005 9.09L1.482 0.568C1.592 0.538 1.706 0.518 1.822 0.508L2 0.5H18Z" fill="#4F8E00"/>
</svg>
