<svg width="25" height="35" viewBox="0 0 25 35" fill="none" xmlns="http://www.w3.org/2000/svg">
<path d="M12.4981 0C5.7677 0 0.324219 5.4775 0.324219 12.25C0.324219 21.4375 12.4981 35 12.4981 35C12.4981 35 24.672 21.4375 24.672 12.25C24.672 5.4775 19.2286 0 12.4981 0ZM12.4981 16.625C11.345 16.625 10.2391 16.1641 9.42376 15.3436C8.60838 14.5231 8.15031 13.4103 8.15031 12.25C8.15031 11.0897 8.60838 9.97688 9.42376 9.15641C10.2391 8.33594 11.345 7.875 12.4981 7.875C13.6512 7.875 14.7571 8.33594 15.5725 9.15641C16.3879 9.97688 16.846 11.0897 16.846 12.25C16.846 13.4103 16.3879 14.5231 15.5725 15.3436C14.7571 16.1641 13.6512 16.625 12.4981 16.625Z" fill="#4F8E00"/>
</svg>
