<svg width="38" height="38" viewBox="0 0 38 38" fill="none" xmlns="http://www.w3.org/2000/svg">
<g clip-path="url(#clip0_509_12546)">
<path d="M14.4595 30.5558C12.6322 29.9775 11.284 28.8516 10.4151 27.1782C9.54613 25.5047 9.40078 23.7543 9.97903 21.9269L13.9388 9.41351C14.3536 8.10258 15.1755 7.12804 16.4045 6.48991C17.6334 5.85178 18.9034 5.74013 20.2143 6.15496C21.5252 6.56979 22.4997 7.39169 23.1379 8.62064C23.776 9.84959 23.8877 11.1195 23.4728 12.4305L19.8902 23.7521C19.6262 24.5864 19.1151 25.2004 18.3568 25.5941C17.5985 25.9878 16.8022 26.0527 15.968 25.7887C15.1338 25.5247 14.5198 25.0136 14.1261 24.2553C13.7323 23.497 13.6674 22.7008 13.9314 21.8665L17.5141 10.5449L19.3017 11.1105L15.7191 22.4322C15.6122 22.7699 15.637 23.0893 15.7934 23.3906C15.9498 23.6918 16.1966 23.8953 16.5337 24.0011C16.8714 24.1079 17.1908 24.0832 17.492 23.9268C17.7932 23.7703 17.9968 23.5236 18.1026 23.1865L21.6852 11.8648C21.9492 11.0306 21.8843 10.2343 21.4906 9.47601C21.0968 8.71772 20.4828 8.20658 19.6486 7.9426C18.8144 7.67861 18.0181 7.74349 17.2598 8.13723C16.5015 8.53097 15.9904 9.14496 15.7264 9.97919L11.7667 22.4926C11.3518 23.8036 11.4635 25.0735 12.1016 26.3024C12.7397 27.5314 13.7143 28.3533 15.0252 28.7681C16.3361 29.183 17.6061 29.0713 18.835 28.4332C20.064 27.795 20.8859 26.8205 21.3007 25.5096L25.2605 12.9961L27.0481 13.5618L23.0883 26.0753C22.5101 27.9026 21.3842 29.2508 19.7108 30.1197C18.0373 30.9887 16.2869 31.134 14.4595 30.5558Z" fill="white"/>
</g>
<defs>
<clipPath id="clip0_509_12546">
<rect width="30" height="30" fill="white" transform="translate(9.05078) rotate(17.5595)"/>
</clipPath>
</defs>
</svg>
