<svg width="54" height="50" viewBox="0 0 54 50" fill="none" xmlns="http://www.w3.org/2000/svg">
<path d="M25 46.1538C18.0769 46.1538 11.3462 42.6923 7.30769 36.5385H17.3077V32.6923H1.92308V48.0769H5.76923V40.9615C10.5769 46.7308 17.5 50 25 50V46.1538ZM53.8462 38.4615V34.6154H49.8077C49.6154 33.4615 49.0385 32.3077 48.4615 31.1538L51.3462 28.2692L48.6538 25.5769L45.7692 28.4615C44.8077 27.8846 43.6538 27.3077 42.3077 27.1154V23.0769H38.4615V27.1154C37.3077 27.3077 36.1538 27.8846 35 28.4615L32.1154 25.5769L29.4231 28.2692L32.3077 31.1538C31.7308 32.1154 31.1538 33.2692 30.9615 34.6154H26.9231V38.4615H30.9615C31.1538 39.6154 31.7308 40.7692 32.3077 41.9231L29.4231 44.8077L32.1154 47.5L35 44.6154C35.9615 45.1923 37.1154 45.7692 38.4615 45.9615V50H42.3077V45.9615C43.4615 45.7692 44.6154 45.1923 45.7692 44.6154L48.6538 47.5L51.3462 44.8077L48.4615 41.9231C49.0385 40.9615 49.6154 39.8077 49.8077 38.4615H53.8462ZM40.3846 42.3077C37.1154 42.3077 34.6154 39.8077 34.6154 36.5385C34.6154 33.2692 37.1154 30.7692 40.3846 30.7692C43.6538 30.7692 46.1538 33.2692 46.1538 36.5385C46.1538 39.8077 43.6538 42.3077 40.3846 42.3077ZM32.6923 13.4615H42.6923C36.3462 3.65385 23.2692 0.961539 13.4615 7.30769C7.5 11.1538 3.84615 17.8846 3.84615 25H0C0 11.1538 11.1538 0 25 0C32.5 0 39.4231 3.26923 44.2308 9.03846V1.92308H48.0769V17.3077H32.6923V13.4615Z" fill="url(#paint0_linear_402_20240)"/>
<defs>
<linearGradient id="paint0_linear_402_20240" x1="49.8149" y1="9.51931e-06" x2="-5.92956" y2="7.84018" gradientUnits="userSpaceOnUse">
<stop stop-color="#4F8E00"/>
<stop offset="1" stop-color="#88AF01"/>
</linearGradient>
</defs>
</svg>
