<svg width="50" height="50" viewBox="0 0 50 50" fill="none" xmlns="http://www.w3.org/2000/svg">
<path d="M24.975 0C11.175 0 0 11.2 0 25C0 38.8 11.175 50 24.975 50C38.8 50 50 38.8 50 25C50 11.2 38.8 0 24.975 0ZM25 45C13.95 45 5 36.05 5 25C5 13.95 13.95 5 25 5C36.05 5 45 13.95 45 25C45 36.05 36.05 45 25 45ZM26.25 12.5H22.5V27.5L35.625 35.375L37.5 32.3L26.25 25.625V12.5Z" fill="url(#paint0_linear_402_20251)"/>
<defs>
<linearGradient id="paint0_linear_402_20251" x1="46.2567" y1="9.51931e-06" x2="-5.6447" y2="6.77827" gradientUnits="userSpaceOnUse">
<stop stop-color="#4F8E00"/>
<stop offset="1" stop-color="#88AF01"/>
</linearGradient>
</defs>
</svg>
