<svg width="46" height="50" viewBox="0 0 46 50" fill="none" xmlns="http://www.w3.org/2000/svg">
<path d="M20.8778 0.319078C21.8707 -0.0524045 22.9555 -0.100834 23.9775 0.180698L24.4102 0.319078L42.0223 6.92358C42.9153 7.25844 43.6947 7.84018 44.2698 8.60101C44.8449 9.36184 45.1919 10.2704 45.2704 11.2209L45.288 11.6361V25.1294C45.2879 29.2064 44.1871 33.2077 42.1018 36.711C40.0164 40.2143 37.0239 43.0896 33.4402 45.0335L32.7709 45.3832L24.3323 49.6025C23.8676 49.8345 23.3601 49.9681 22.8414 49.995C22.3228 50.0218 21.8042 49.9413 21.3181 49.7585L20.9558 49.6025L12.5171 45.3832C8.87044 43.5598 5.78372 40.7857 3.5828 37.3537C1.38187 33.9216 0.148395 29.959 0.0125803 25.8842L0 25.1294V11.6361C1.46307e-05 10.6828 0.270789 9.74919 0.7808 8.94386C1.29081 8.13853 2.01908 7.49463 2.88082 7.08712L3.26577 6.92358L20.8778 0.319078ZM22.644 5.03155L5.032 11.6361V25.1294C5.03207 28.287 5.88104 31.3865 7.49003 34.1034C9.09901 36.8203 11.4088 39.0547 14.1777 40.5726L14.7689 40.8821L22.644 44.8196L30.5191 40.8821C33.3439 39.4699 35.737 37.3242 37.4478 34.6697C39.1587 32.0152 40.1242 28.9494 40.2435 25.7936L40.256 25.1294V11.6361L22.644 5.03155ZM31.2814 16.507C31.7342 16.0558 32.3418 15.7938 32.9807 15.7743C33.6197 15.7548 34.2421 15.9792 34.7215 16.402C35.201 16.8248 35.5016 17.4142 35.5622 18.0505C35.6228 18.6869 35.4389 19.3225 35.0479 19.8282L34.8391 20.0647L21.6703 33.2359C21.1906 33.7155 20.5515 34.0023 19.8743 34.0417C19.1971 34.0811 18.5291 33.8705 17.997 33.4498L17.7554 33.2359L11.707 27.1875C11.2509 26.7357 10.9848 26.1268 10.963 25.4853C10.9413 24.8437 11.1655 24.2182 11.5899 23.7366C12.0142 23.255 12.6066 22.9538 13.2458 22.8946C13.885 22.8355 14.5226 23.0229 15.0281 23.4185L15.2646 23.6273L19.7129 28.0756L31.2814 16.507Z" fill="url(#paint0_linear_402_20273)"/>
<defs>
<linearGradient id="paint0_linear_402_20273" x1="41.8975" y1="9.51931e-06" x2="-5.25477" y2="5.57771" gradientUnits="userSpaceOnUse">
<stop stop-color="#4F8E00"/>
<stop offset="1" stop-color="#88AF01"/>
</linearGradient>
</defs>
</svg>
