<svg width="30" height="50" viewBox="0 0 30 50" fill="none" xmlns="http://www.w3.org/2000/svg">
<path d="M16.0413 9.1665H11.458V11.4582C11.458 12.066 11.6995 12.6489 12.1292 13.0786C12.559 13.5084 13.1419 13.7498 13.7497 13.7498C14.3575 13.7498 14.9404 13.5084 15.3701 13.0786C15.7999 12.6489 16.0413 12.066 16.0413 11.4582V9.1665Z" fill="url(#paint0_linear_265_10955)"/>
<path fill-rule="evenodd" clip-rule="evenodd" d="M0 0V5H2.5V12.5C2.5 15.8152 3.81696 18.9946 6.16117 21.3388C8.50537 23.683 11.6848 25 15 25C11.6848 25 8.50537 26.317 6.16117 28.6612C3.81696 31.0054 2.5 34.1848 2.5 37.5V45H0V50H30V45H27.5V37.5C27.5 34.1848 26.183 31.0054 23.8388 28.6612C21.4946 26.317 18.3152 25 15 25C16.6415 25 18.267 24.6767 19.7835 24.0485C21.3001 23.4203 22.6781 22.4996 23.8388 21.3388C24.9996 20.1781 25.9203 18.8001 26.5485 17.2835C27.1767 15.767 27.5 14.1415 27.5 12.5V5H30V0H0ZM7.5 5H22.5V12.5C22.5 14.4891 21.7098 16.3968 20.3033 17.8033C18.8968 19.2098 16.9891 20 15 20C13.0109 20 11.1032 19.2098 9.6967 17.8033C8.29018 16.3968 7.5 14.4891 7.5 12.5V5ZM7.5 37.5V45H22.5V37.5C22.5 35.5109 21.7098 33.6032 20.3033 32.1967C18.8968 30.7902 16.9891 30 15 30C13.0109 30 11.1032 30.7902 9.6967 32.1967C8.29018 33.6032 7.5 35.5109 7.5 37.5Z" fill="url(#paint1_linear_265_10955)"/>
<defs>
<linearGradient id="paint0_linear_265_10955" x1="15.6982" y1="9.1665" x2="10.9406" y2="9.78784" gradientUnits="userSpaceOnUse">
<stop stop-color="#4F8E00"/>
<stop offset="1" stop-color="#88AF01"/>
</linearGradient>
<linearGradient id="paint1_linear_265_10955" x1="27.754" y1="9.51931e-06" x2="-3.72468" y2="2.46666" gradientUnits="userSpaceOnUse">
<stop stop-color="#4F8E00"/>
<stop offset="1" stop-color="#88AF01"/>
</linearGradient>
</defs>
</svg>
