<svg width="49" height="54" viewBox="0 0 49 54" fill="none" xmlns="http://www.w3.org/2000/svg">
<path d="M7.55811 8.94484C7.55811 10.7867 9.31415 12.5532 12.4399 13.8556C15.5657 15.158 19.8052 15.8897 24.2257 15.8897C28.6463 15.8897 32.8857 15.158 36.0115 13.8556C39.1373 12.5532 40.8934 10.7867 40.8934 8.94484C40.8934 7.10296 39.1373 5.33651 36.0115 4.0341C32.8857 2.73169 28.6463 2 24.2257 2C19.8052 2 15.5657 2.73169 12.4399 4.0341C9.31415 5.33651 7.55811 7.10296 7.55811 8.94484Z" stroke="url(#paint0_linear_156_13510)" stroke-width="4" stroke-linecap="round" stroke-linejoin="round"/>
<path d="M40.8934 8.94141V21.7921C41.6998 21.4269 42.6059 21.3446 43.4649 21.5585C44.3239 21.7724 45.0856 22.27 45.6266 22.9707C46.1675 23.6714 46.4561 24.5343 46.4456 25.4194C46.4351 26.3046 46.1261 27.1604 45.5687 27.848L45.2992 28.1481L40.8934 32.5539V43.6656C40.8934 48.1381 33.8375 51.7911 24.9897 51.9994H24.2258C15.0197 51.9994 7.55816 48.2687 7.55816 43.6656V38.1098L3.15235 33.7039C2.50075 33.0532 2.0985 32.1942 2.01586 31.2771C1.93321 30.3599 2.17544 29.4429 2.70022 28.6861C3.22499 27.9294 3.99896 27.3811 4.8869 27.137C5.77485 26.893 6.72032 26.9686 7.55816 27.3508V8.94141M18.6699 28.387V32.5539M29.7817 38.1098V40.8877" stroke="url(#paint1_linear_156_13510)" stroke-width="4" stroke-linecap="round" stroke-linejoin="round"/>
<defs>
<linearGradient id="paint0_linear_156_13510" x1="38.3977" y1="2" x2="6.35275" y2="12.0441" gradientUnits="userSpaceOnUse">
<stop stop-color="#4F8E00"/>
<stop offset="1" stop-color="#88AF01"/>
</linearGradient>
<linearGradient id="paint1_linear_156_13510" x1="43.1184" y1="8.94141" x2="-2.96705" y2="15.1541" gradientUnits="userSpaceOnUse">
<stop stop-color="#4F8E00"/>
<stop offset="1" stop-color="#88AF01"/>
</linearGradient>
</defs>
</svg>
