<svg width="20" height="21" viewBox="0 0 20 21" fill="none" xmlns="http://www.w3.org/2000/svg">
<path d="M14.6568 13.3982H13.7306L13.4023 13.0816C14.135 12.2304 14.6705 11.2278 14.9704 10.1454C15.2704 9.06313 15.3274 7.92789 15.1374 6.82096C14.5864 3.56167 11.8664 0.958926 8.5837 0.560308C7.4296 0.414303 6.2574 0.534247 5.15679 0.910962C4.05617 1.28768 3.05633 1.91118 2.23375 2.73375C1.41118 3.55633 0.787676 4.55617 0.410962 5.65679C0.0342475 6.7574 -0.0856965 7.9296 0.0603082 9.0837C0.458926 12.3664 3.06167 15.0864 6.32096 15.6374C7.42789 15.8274 8.56313 15.7704 9.64545 15.4704C10.7278 15.1705 11.7304 14.635 12.5816 13.9023L12.8982 14.2306V15.1568L17.8809 20.1395C18.3616 20.6202 19.1471 20.6202 19.6278 20.1395C20.1084 19.6588 20.1084 18.8733 19.6278 18.3926L14.6568 13.3982ZM7.62233 13.3982C4.70304 13.3982 2.3465 11.0416 2.3465 8.12233C2.3465 5.20304 4.70304 2.8465 7.62233 2.8465C10.5416 2.8465 12.8982 5.20304 12.8982 8.12233C12.8982 11.0416 10.5416 13.3982 7.62233 13.3982Z" fill="#4F8E00"/>
</svg>
