<svg width="10" height="7" viewBox="0 0 10 7" fill="none" xmlns="http://www.w3.org/2000/svg">
<path d="M0.556107 1.26131L0.556541 1.26086C0.590831 1.22468 0.628748 1.21189 0.662357 1.21175C0.695904 1.21161 0.733169 1.22406 0.76637 1.25774L4.63967 5.34441L5.00257 5.7273L5.36547 5.34441L9.23581 1.26086C9.27017 1.2246 9.3075 1.21245 9.33956 1.21245C9.37163 1.21245 9.40896 1.2246 9.44332 1.26086C9.51889 1.34059 9.51889 1.47794 9.44332 1.55768L5.00877 6.23651L5.00842 6.23688C5.00476 6.24076 5.00187 6.2423 5.00068 6.24282L4.99993 6.24316L4.99917 6.24282C4.99798 6.2423 4.9951 6.24076 4.99144 6.23688L4.99109 6.23651L0.556541 1.55768L0.556106 1.55722C0.539925 1.54019 0.525754 1.51852 0.515639 1.4928C0.505512 1.46705 0.5 1.43859 0.5 1.40927C0.5 1.37994 0.505512 1.35148 0.515639 1.32573C0.525753 1.30001 0.539924 1.27835 0.556107 1.26131ZM5.20116 6.70088C5.26495 6.67296 5.32289 6.63204 5.37167 6.58047L0.19364 0.916903C0.132259 0.981503 0.0835597 1.05824 0.0503316 1.14273C0.0171036 1.22722 -2.35915e-07 1.31779 -2.31938e-07 1.40927C-2.2796e-07 1.50074 0.0171036 1.59131 0.0503316 1.6758C0.0835597 1.76029 0.132259 1.83703 0.19364 1.90163L4.62819 6.58047C4.67697 6.63204 4.73491 6.67296 4.7987 6.70088C4.86249 6.72879 4.93087 6.74316 4.99993 6.74316C5.06899 6.74316 5.13737 6.72879 5.20116 6.70088Z" fill="#4F8E00" stroke="black"/>
</svg>
