<svg width="27" height="20" viewBox="0 0 27 20" fill="none" xmlns="http://www.w3.org/2000/svg">
<path d="M8.33819 14.4023L22.0991 0.641398C22.5267 0.213799 23.0709 0 23.7318 0C24.3926 0 24.9368 0.213799 25.3644 0.641398C25.792 1.069 26.0058 1.61322 26.0058 2.27405C26.0058 2.93489 25.792 3.47911 25.3644 3.90671L9.97085 19.3003C9.50437 19.7668 8.96016 20 8.33819 20C7.71623 20 7.17201 19.7668 6.70554 19.3003L0.641399 13.2362C0.213799 12.8086 0 12.2643 0 11.6035C0 10.9427 0.213799 10.3984 0.641399 9.97084C1.069 9.54324 1.61322 9.32945 2.27405 9.32945C2.93489 9.32945 3.47911 9.54324 3.90671 9.97084L8.33819 14.4023Z" fill="url(#paint0_linear_229_10838)"/>
<defs>
<linearGradient id="paint0_linear_229_10838" x1="24.0589" y1="3.80772e-06" x2="-2.62678" y2="4.53167" gradientUnits="userSpaceOnUse">
<stop stop-color="#4F8E00"/>
<stop offset="1" stop-color="#88AF01"/>
</linearGradient>
</defs>
</svg>
