<svg width="27" height="16" viewBox="0 0 27 16" fill="none" xmlns="http://www.w3.org/2000/svg">
<path d="M26.3809 1.08352C26.5696 0.458411 26.3809 0 25.489 0H22.5341C21.7822 0 21.4386 0.396573 21.25 0.83213C21.25 0.83213 19.7476 4.48731 17.6187 6.85733C16.9316 7.54697 16.6176 7.76475 16.243 7.76475C16.0557 7.76475 15.7836 7.54697 15.7836 6.92186V1.08352C15.7836 0.33339 15.5666 0 14.9401 0H10.2969C9.82801 0 9.54505 0.346833 9.54505 0.677533C9.54505 1.38733 10.6095 1.55134 10.7186 3.55167V7.89111C10.7186 8.84154 10.5475 9.01496 10.1703 9.01496C9.16913 9.01496 6.73301 5.34633 5.28724 1.1467C5.00563 0.330701 4.72132 0.00134486 3.96677 0.00134486H1.01325C0.168426 0.00134486 0 0.397917 0 0.833474C0 1.61586 1.00113 5.48748 4.66339 10.608C7.10489 14.1045 10.5421 16 13.6735 16C15.5505 16 15.7822 15.5792 15.7822 14.8533V12.2104C15.7822 11.3688 15.9614 11.1995 16.5556 11.1995C16.9922 11.1995 17.744 11.4199 19.497 13.1044C21.4993 15.102 21.8307 15.9987 22.9558 15.9987H25.9093C26.7528 15.9987 27.1746 15.5779 26.932 14.7471C26.6666 13.9203 25.7099 12.7172 24.4407 11.2936C23.7508 10.4816 22.72 9.6078 22.4061 9.1709C21.9682 8.60763 22.0948 8.35893 22.4061 7.85885C22.4074 7.86019 26.0064 2.80289 26.3809 1.08352Z" fill="white"/>
</svg>
